<svg width="146" height="56" viewBox="0 0 146 56" fill="none" xmlns="http://www.w3.org/2000/svg">
<rect width="146" height="56" fill="white" fill-opacity="0.01"/>
<g clip-path="url(#clip0_55_186)">
<path d="M21.0029 28.9433C20.5473 28.9366 20.0952 28.8633 19.6608 28.7255C19.2632 28.5939 18.8938 28.3889 18.5717 28.1212C18.2578 27.8558 18.006 27.5248 17.8339 27.1515C17.6448 26.7422 17.5511 26.2954 17.5599 25.8446V19.7455H16.527C16.3855 19.7561 16.2452 19.7135 16.1335 19.626C16.084 19.5755 16.0464 19.5146 16.0233 19.4478C16.0002 19.381 15.9922 19.3098 16 19.2396V17.9186C15.9918 17.8504 15.9996 17.7812 16.0228 17.7166C16.046 17.652 16.0839 17.5936 16.1335 17.5461C16.2487 17.4671 16.3876 17.4299 16.527 17.4407H17.5599C17.5599 17.1175 17.5599 16.8013 17.5599 16.4851C17.5599 16.1689 17.5599 15.8527 17.5599 15.5365C17.5559 15.4832 17.564 15.4296 17.5834 15.3797C17.6029 15.3299 17.6332 15.285 17.6723 15.2484C17.7805 15.1769 17.9026 15.129 18.0307 15.1079L18.4031 14.9744L18.8528 14.8268L19.2954 14.7004C19.4156 14.6733 19.5378 14.6569 19.6608 14.6512C19.73 14.6423 19.8002 14.6519 19.8644 14.679C19.9286 14.7062 19.9845 14.7499 20.0262 14.8058C20.0874 14.9326 20.1163 15.0726 20.1105 15.2133C20.1105 15.5927 20.1105 15.9722 20.1105 16.3446V17.4689H21.4034C21.5337 17.4616 21.6619 17.5044 21.7618 17.5883C21.8078 17.6409 21.8426 17.7023 21.8644 17.7687C21.8861 17.8351 21.8942 17.9052 21.8883 17.9748V19.2044C21.9017 19.3538 21.8563 19.5025 21.7618 19.619C21.7137 19.6631 21.6571 19.6971 21.5955 19.7188C21.5339 19.7405 21.4686 19.7496 21.4034 19.7455H20.1035V22.0432C20.1035 22.2259 20.1035 22.4156 20.1035 22.6264V24.3479C20.1068 24.3594 20.1068 24.3716 20.1035 24.3831V25.6057C20.0759 25.91 20.1582 26.2141 20.3354 26.4629C20.4351 26.5595 20.5546 26.6334 20.6856 26.6795C20.8166 26.7256 20.956 26.7428 21.0943 26.7299C21.1515 26.7275 21.2085 26.7382 21.2609 26.7614C21.3134 26.7845 21.3597 26.8195 21.3964 26.8635C21.4673 26.9561 21.5044 27.0701 21.5018 27.1867V28.4585C21.5064 28.5254 21.4969 28.5924 21.4739 28.6554C21.4509 28.7183 21.4149 28.7757 21.3683 28.8239C21.3185 28.8673 21.2605 28.9003 21.1978 28.9208C21.135 28.9413 21.0687 28.949 21.0029 28.9433Z" fill="#009F69"/>
<path d="M32.9904 28.8169C32.9204 28.8246 32.8497 28.8246 32.7796 28.8169H31.6553C31.5748 28.8203 31.4945 28.8056 31.4204 28.774C31.3462 28.7424 31.28 28.6946 31.2267 28.6342C31.1553 28.5214 31.1098 28.3942 31.0932 28.2618L30.9948 27.4396C30.855 27.6511 30.6898 27.8446 30.503 28.0158C30.2906 28.207 30.0544 28.37 29.8003 28.5007C29.5055 28.6565 29.1912 28.7723 28.8658 28.845C28.4739 28.9336 28.073 28.976 27.6712 28.9715C27.0182 28.9824 26.3708 28.8505 25.7741 28.585C25.2327 28.3463 24.7523 27.9884 24.3687 27.538C23.9873 27.0762 23.7008 26.5438 23.5255 25.9711C23.3248 25.342 23.2252 24.685 23.2304 24.0247V18.038C23.2178 17.8604 23.273 17.6846 23.385 17.5462C23.4426 17.4883 23.5119 17.4433 23.5882 17.4142C23.6645 17.3852 23.7462 17.3726 23.8277 17.3775H25.233C25.3186 17.3666 25.4056 17.3728 25.4888 17.3958C25.572 17.4187 25.6498 17.4579 25.7178 17.511C25.8102 17.6524 25.8523 17.8207 25.8373 17.9888V24.0177C25.8356 24.3323 25.883 24.6452 25.9778 24.9452C26.0725 25.2439 26.2253 25.5209 26.4275 25.7603C26.6276 26.0112 26.8824 26.213 27.1724 26.3505C27.499 26.4972 27.8543 26.5692 28.2123 26.5613C28.5083 26.5606 28.8024 26.5132 29.0836 26.4208C29.3822 26.3243 29.6608 26.1743 29.9057 25.9781C30.1567 25.7727 30.3645 25.5195 30.517 25.2333C30.6831 24.9098 30.7652 24.5498 30.7559 24.1863V18.3261C30.7559 18.2207 30.7559 18.1083 30.7559 17.9959C30.7699 17.8902 30.7958 17.7865 30.8332 17.6867C30.8717 17.6018 30.9266 17.5253 30.9948 17.4618C31.0786 17.4021 31.1801 17.3724 31.2829 17.3775H32.7937C32.8725 17.3709 32.9519 17.3806 33.0268 17.4059C33.1018 17.4313 33.1707 17.4719 33.2293 17.5251C33.2792 17.5784 33.3175 17.6416 33.3417 17.7106C33.3659 17.7795 33.3755 17.8527 33.3698 17.9256V28.318C33.3719 28.4317 33.3355 28.5427 33.2667 28.6333C33.1978 28.7238 33.1005 28.7885 32.9904 28.8169Z" fill="#009F69"/>
<path d="M41.9985 17.9819C41.9983 17.888 41.9692 17.7966 41.9151 17.7199C41.861 17.6432 41.7847 17.585 41.6964 17.5532C41.466 17.4766 41.2314 17.4132 40.9937 17.3635C40.7241 17.3216 40.4514 17.3028 40.1786 17.3073C39.8436 17.2925 39.5084 17.3352 39.1879 17.4338C38.9406 17.5136 38.7044 17.6245 38.4852 17.764C38.2779 17.8983 38.0889 18.0589 37.9231 18.2419C37.7594 18.4128 37.6091 18.5961 37.4734 18.7899C37.4734 18.6635 37.4523 18.5229 37.4101 18.3683C37.3978 18.2164 37.3719 18.0659 37.3328 17.9186C37.2977 17.794 37.2353 17.6788 37.1501 17.5814C37.1066 17.5344 37.053 17.498 36.9934 17.4749C36.9337 17.4518 36.8696 17.4425 36.8058 17.4479H35.6746C35.5364 17.4471 35.4024 17.4943 35.2951 17.5814C35.2348 17.6286 35.1867 17.6896 35.1549 17.7593C35.1231 17.829 35.1085 17.9054 35.1124 17.9819V28.3953C35.1029 28.4708 35.1109 28.5475 35.136 28.6193C35.1611 28.6912 35.2025 28.7562 35.257 28.8093C35.3115 28.8625 35.3776 28.9022 35.45 28.9255C35.5225 28.9488 35.5993 28.9549 35.6746 28.9434H37.1642C37.2394 28.9549 37.3163 28.9488 37.3887 28.9255C37.4612 28.9022 37.5273 28.8625 37.5817 28.8093C37.6362 28.7562 37.6776 28.6912 37.7027 28.6193C37.7278 28.5475 37.7359 28.4708 37.7263 28.3953V22.3524C37.7148 21.9013 37.8011 21.4531 37.9793 21.0385C38.1363 20.6694 38.3891 20.349 38.7115 20.1106C39.034 19.8721 39.4144 19.7243 39.8132 19.6823C40.3151 19.6206 40.8243 19.6933 41.2888 19.8931C41.5348 19.9704 41.9423 20.0899 41.9915 19.598V17.9819H41.9985Z" fill="#009F69"/>
<path d="M47.8588 28.9433C47.4031 28.9372 46.9509 28.8638 46.5167 28.7255C46.1184 28.5955 45.7487 28.3903 45.4276 28.1212C45.11 27.8594 44.8575 27.5274 44.6898 27.1515C44.5007 26.7422 44.407 26.2954 44.4157 25.8446V19.7455H43.4039C43.2626 19.7548 43.1227 19.7123 43.0104 19.626C42.9634 19.5741 42.9278 19.5129 42.906 19.4463C42.8842 19.3797 42.8767 19.3093 42.8839 19.2396V17.9186C42.8764 17.851 42.8839 17.7826 42.9057 17.7183C42.9276 17.6539 42.9633 17.5952 43.0104 17.5461C43.1295 17.4779 43.2678 17.4507 43.4039 17.4689H44.4438C44.4438 17.1456 44.4438 16.8294 44.4438 16.5132V15.5646C44.4413 15.5108 44.4506 15.457 44.4713 15.4072C44.4919 15.3574 44.5234 15.3128 44.5633 15.2765C44.6579 15.1982 44.7681 15.1407 44.8865 15.1079L45.2589 14.9744L45.7016 14.8268L46.1513 14.7004C46.2691 14.6737 46.389 14.6573 46.5097 14.6512C46.5789 14.6415 46.6494 14.6508 46.7137 14.678C46.7781 14.7052 46.8338 14.7494 46.8751 14.8058C46.942 14.9308 46.9736 15.0717 46.9664 15.2133C46.9664 15.5927 46.9664 15.9722 46.9664 16.3446C46.9664 16.717 46.9664 17.1035 46.9664 17.4829H48.2734C48.4037 17.4757 48.5318 17.5184 48.6317 17.6024C48.6777 17.655 48.7126 17.7163 48.7343 17.7827C48.756 17.8491 48.7642 17.9192 48.7582 17.9888V19.2044C48.7716 19.3538 48.7262 19.5025 48.6317 19.619C48.5836 19.6631 48.527 19.6971 48.4654 19.7188C48.4039 19.7405 48.3385 19.7496 48.2734 19.7455H46.9523V21.4319C46.9523 21.6356 46.9523 21.8324 46.9523 22.0151C46.9523 22.1978 46.9523 22.3875 46.9523 22.5983V24.3198C46.9557 24.3313 46.9557 24.3435 46.9523 24.3549C46.953 24.3666 46.953 24.3784 46.9523 24.3901V25.5776C46.9262 25.8828 47.011 26.1872 47.1913 26.4348C47.291 26.5314 47.4105 26.6053 47.5415 26.6514C47.6725 26.6975 47.8119 26.7147 47.9501 26.7018C48.0064 26.6988 48.0626 26.7093 48.114 26.7326C48.1654 26.7558 48.2104 26.791 48.2452 26.8353C48.3213 26.9255 48.3614 27.0406 48.3577 27.1586V28.4585C48.363 28.5254 48.3537 28.5926 48.3305 28.6555C48.3073 28.7184 48.2707 28.7756 48.2233 28.823C48.1759 28.8704 48.1187 28.907 48.0558 28.9302C47.9929 28.9534 47.9256 28.9627 47.8588 28.9574V28.9433Z" fill="#009F69"/>
<path d="M50.2126 14.6021C50.2082 14.4624 50.253 14.3257 50.3391 14.2156C50.3884 14.1614 50.4496 14.1192 50.5178 14.0924C50.586 14.0656 50.6595 14.0549 50.7326 14.061H52.3136C52.3773 14.0626 52.4401 14.0771 52.4981 14.1037C52.556 14.1302 52.608 14.1683 52.6508 14.2156C52.7018 14.2659 52.7419 14.3262 52.7685 14.3927C52.7951 14.4592 52.8077 14.5305 52.8054 14.6021V28.3953C52.8111 28.4698 52.8009 28.5447 52.7755 28.615C52.75 28.6852 52.7099 28.7493 52.6579 28.8029C52.5475 28.8996 52.404 28.95 52.2573 28.9434H50.7466C50.6726 28.9505 50.5979 28.9416 50.5276 28.9174C50.4573 28.8931 50.393 28.8541 50.3391 28.8029C50.2463 28.6882 50.201 28.5424 50.2126 28.3953V14.6021Z" fill="#009F69"/>
<path d="M63.8935 27.6786C63.3716 28.1212 62.7836 28.4792 62.1509 28.7396C61.4818 29.0112 60.7649 29.1451 60.0429 29.1331C59.2488 29.137 58.4623 28.9792 57.7311 28.6694C57.0192 28.3736 56.3705 27.9442 55.8199 27.4046C55.2694 26.8649 54.826 26.2259 54.5129 25.5214C54.1875 24.7896 54.0222 23.9966 54.0281 23.1956C54.0226 22.1598 54.2865 21.1404 54.794 20.2374C55.0344 19.7993 55.3322 19.3953 55.6794 19.0359C56.3946 18.2984 57.295 17.7669 58.2862 17.497C58.8057 17.3539 59.3425 17.283 59.8813 17.2862C60.3385 17.2865 60.794 17.3431 61.2374 17.4549C61.6752 17.5643 62.0994 17.7222 62.5022 17.9257C62.9023 18.1334 63.2792 18.3831 63.6265 18.6705C63.9745 18.9621 64.286 19.2947 64.554 19.6612C64.9087 20.1585 65.1771 20.712 65.348 21.2984C65.523 21.9298 65.6082 22.5827 65.601 23.2378C65.6133 23.3851 65.6133 23.5332 65.601 23.6805C65.593 23.7834 65.5538 23.8815 65.4885 23.9615C65.4179 24.0411 65.3248 24.0975 65.2215 24.1231C65.0553 24.1586 64.8856 24.1751 64.7156 24.1723H56.6771C56.7467 24.5821 56.8972 24.9738 57.1198 25.3247C57.3327 25.648 57.596 25.9351 57.8998 26.1749C58.4889 26.6263 59.2094 26.873 59.9516 26.8776C60.2134 26.8776 60.4747 26.8517 60.7315 26.8003C61.1959 26.703 61.6388 26.522 62.0385 26.2663C62.2098 26.1611 62.3699 26.0387 62.5163 25.9009C62.5785 25.8423 62.6468 25.7904 62.72 25.7463C62.7827 25.7052 62.8559 25.6833 62.9308 25.6831C62.9951 25.6883 63.0575 25.7074 63.1135 25.7393C63.1944 25.784 63.2641 25.8464 63.3173 25.922L63.7319 26.4138C63.8443 26.5473 63.9427 26.6598 64.0129 26.7511C64.072 26.8246 64.126 26.9021 64.1746 26.983C64.2041 27.0471 64.2208 27.1163 64.2237 27.1868C64.2078 27.2878 64.17 27.3842 64.113 27.4692C64.0559 27.5542 63.981 27.6256 63.8935 27.6786ZM59.8813 19.5277C59.5324 19.5295 59.1869 19.5962 58.8624 19.7245C58.5273 19.8498 58.2142 20.0277 57.9349 20.2515C57.6628 20.4773 57.4259 20.7426 57.2322 21.0385C57.0223 21.3341 56.861 21.6615 56.7544 22.0081H63.1487C62.9729 21.3018 62.5706 20.6724 62.0033 20.2163C61.7193 19.9932 61.3982 19.822 61.0547 19.7104C60.6766 19.5842 60.2799 19.5224 59.8813 19.5277Z" fill="#009F69"/>
<path d="M67.2944 17.5814C67.4752 17.4998 67.6724 17.4613 67.8706 17.469H68.777C68.8514 17.4634 68.9259 17.4758 68.9944 17.5052C69.0629 17.5345 69.1233 17.58 69.1705 17.6376C69.2536 17.753 69.3111 17.8847 69.3392 18.0241L69.4024 18.8884C69.5474 18.6805 69.7071 18.4832 69.8802 18.2981C70.0725 18.1018 70.2899 17.9317 70.5267 17.7922C70.803 17.6392 71.0983 17.5234 71.405 17.4479C71.7863 17.3524 72.1784 17.3075 72.5714 17.3144C72.9588 17.3118 73.3452 17.3519 73.7238 17.4338C74.3648 17.5818 74.9485 17.914 75.4031 18.3895C75.6343 18.6327 75.837 18.9014 76.0074 19.1905C76.1591 18.8993 76.3586 18.6356 76.5977 18.4105C76.8518 18.1708 77.1379 17.9674 77.4479 17.8063C77.7943 17.6346 78.1599 17.5049 78.537 17.4198C78.9316 17.3322 79.3344 17.2875 79.7386 17.2863C80.3848 17.2753 81.0254 17.4072 81.6147 17.6727C82.1399 17.9214 82.6013 18.2867 82.9638 18.7408C83.3366 19.2092 83.6136 19.7464 83.7789 20.3218C83.971 20.9477 84.0658 21.5994 84.06 22.2541V28.283C84.0726 28.4606 84.0174 28.6364 83.9054 28.7748C83.8477 28.8327 83.7785 28.8777 83.7022 28.9067C83.6258 28.9358 83.5442 28.9483 83.4627 28.9435H82.0503C81.9653 28.954 81.879 28.947 81.7968 28.9228C81.7146 28.8986 81.6383 28.8578 81.5725 28.8029C81.4739 28.6642 81.429 28.4944 81.4461 28.3251V22.2611C81.459 21.9488 81.4258 21.6363 81.3477 21.3336C81.2615 21.0414 81.1182 20.7691 80.9261 20.5326C80.7343 20.2994 80.4947 20.1101 80.2234 19.9775C79.9037 19.8243 79.552 19.7496 79.1975 19.7597C78.8823 19.7588 78.5698 19.8185 78.277 19.9353C78.011 20.0547 77.772 20.2268 77.5744 20.4412C77.3645 20.672 77.2022 20.9418 77.0966 21.2352C76.9738 21.5655 76.9142 21.9159 76.9209 22.2682V28.29C76.9209 28.7256 76.7242 28.9435 76.3307 28.9435H74.9253C74.8403 28.954 74.754 28.947 74.6718 28.9228C74.5896 28.8986 74.5133 28.8578 74.4475 28.8029C74.3542 28.662 74.312 28.4934 74.3281 28.3251V22.2682C74.3285 21.9593 74.2859 21.6518 74.2016 21.3547C74.1145 21.0656 73.9765 20.7943 73.7941 20.5537C73.6038 20.3154 73.364 20.1212 73.0914 19.9845C72.5017 19.7238 71.8336 19.7036 71.2293 19.9283C70.9538 20.0351 70.6992 20.1897 70.4775 20.385C70.2485 20.581 70.06 20.8196 69.9224 21.0877C69.7689 21.3926 69.6917 21.7301 69.6975 22.0714V28.3954C69.6985 28.4664 69.6851 28.5368 69.6582 28.6025C69.6312 28.6682 69.5913 28.7278 69.5408 28.7777C69.4902 28.8275 69.4302 28.8667 69.3641 28.8928C69.2981 28.9188 69.2275 28.9313 69.1565 28.9294H67.6106C67.5323 28.9358 67.4535 28.9266 67.3788 28.9025C67.304 28.8784 67.2348 28.8398 67.175 28.7889C67.0772 28.6763 67.0268 28.5302 67.0344 28.3813V18.003C67.0288 17.9145 67.0508 17.8264 67.0974 17.7508C67.1439 17.6753 67.2128 17.6161 67.2944 17.5814Z" fill="#009F69"/>
<path d="M85.669 18.017C85.6656 17.873 85.7157 17.7329 85.8095 17.6236C85.8588 17.5693 85.92 17.5272 85.9882 17.5004C86.0565 17.4736 86.1299 17.4628 86.203 17.469H87.7067C87.8496 17.4737 87.9864 17.5284 88.0932 17.6236C88.1458 17.6754 88.1908 17.7346 88.2267 17.7992C88.2625 17.8663 88.2817 17.941 88.2829 18.017V28.3954C88.2829 28.7608 88.0932 28.9434 87.7137 28.9434H86.21C86.1361 28.9528 86.0611 28.945 85.9907 28.9207C85.9203 28.8963 85.8564 28.8561 85.8041 28.8031C85.7518 28.7501 85.7124 28.6857 85.6889 28.615C85.6655 28.5443 85.6587 28.4691 85.669 28.3954V18.017Z" fill="#009F69"/>
<path d="M90.2504 17.729C90.3016 17.649 90.3748 17.5856 90.4612 17.5463C90.5235 17.4976 90.6 17.4705 90.679 17.469H91.8876C91.9609 17.4634 92.0345 17.4758 92.1018 17.5052C92.1692 17.5346 92.2284 17.5801 92.2741 17.6376C92.3551 17.7524 92.4147 17.881 92.4497 18.0171L92.5481 18.9797C92.698 18.7611 92.8673 18.5565 93.054 18.3684C93.2642 18.1628 93.5005 17.9856 93.7567 17.8414C94.0512 17.6713 94.3681 17.5436 94.6983 17.462C95.7299 17.2046 96.8171 17.2884 97.797 17.7009C98.3359 17.9436 98.8155 18.3009 99.2023 18.7478C99.5905 19.211 99.8841 19.7457 100.067 20.3218C100.264 20.949 100.362 21.6035 100.355 22.2611V28.29C100.368 28.4643 100.315 28.6372 100.207 28.7748C100.15 28.8327 100.08 28.8777 100.004 28.9067C99.9276 28.9358 99.846 28.9483 99.7645 28.9435H98.3591C98.273 28.9534 98.1858 28.946 98.1026 28.9219C98.0194 28.8978 97.9418 28.8573 97.8743 28.8029C97.7809 28.6621 97.7388 28.4934 97.7549 28.3251V22.3103C97.7543 21.9919 97.6997 21.6759 97.5932 21.3758C97.4857 21.0769 97.3237 20.8006 97.1154 20.5607C96.9037 20.312 96.6398 20.1129 96.3425 19.9775C96.0089 19.8285 95.6468 19.7541 95.2815 19.7597C94.9855 19.7625 94.6925 19.8196 94.4172 19.9283C94.1211 20.0418 93.8457 20.2032 93.6021 20.4061C93.3505 20.6128 93.1406 20.8656 92.9838 21.1509C92.8189 21.4527 92.7319 21.7908 92.7308 22.1347V27.9949C92.7308 28.1073 92.7308 28.2197 92.7308 28.3322C92.7184 28.4381 92.6924 28.542 92.6535 28.6413C92.6155 28.7264 92.5577 28.8011 92.4849 28.8592C92.4035 28.9184 92.3044 28.9481 92.2038 28.9435H90.7142C90.6359 28.9498 90.5571 28.9407 90.4823 28.9166C90.4076 28.8925 90.3383 28.8539 90.2785 28.8029C90.2284 28.7483 90.1901 28.6839 90.1659 28.6138C90.1417 28.5437 90.1322 28.4693 90.138 28.3954V18.003C90.146 17.9022 90.1853 17.8064 90.2504 17.729Z" fill="#009F69"/>
<path d="M105.885 28.9435C105.429 28.9379 104.977 28.8645 104.542 28.7256C104.142 28.5956 103.77 28.3905 103.446 28.1214C103.145 27.8524 102.906 27.5216 102.744 27.1517C102.56 26.7408 102.469 26.2947 102.477 25.8447V19.7456H101.437C101.295 19.7549 101.156 19.7124 101.043 19.6262C100.995 19.5748 100.958 19.5139 100.935 19.4472C100.912 19.3806 100.903 19.3099 100.91 19.2397V17.9187C100.904 17.8507 100.912 17.7821 100.935 17.7178C100.959 17.6535 100.995 17.595 101.043 17.5463C101.159 17.4682 101.297 17.4311 101.437 17.4409H102.427C102.427 17.1177 102.427 16.8015 102.427 16.4853V15.5648C102.425 15.5116 102.434 15.4586 102.454 15.409C102.473 15.3594 102.502 15.3144 102.54 15.2767C102.642 15.1906 102.762 15.1283 102.891 15.094L103.257 14.9605L103.706 14.8129L104.156 14.6864C104.274 14.659 104.394 14.6426 104.514 14.6373C104.584 14.6276 104.654 14.6369 104.718 14.6641C104.783 14.6913 104.839 14.7355 104.88 14.7918C104.941 14.9187 104.97 15.0587 104.964 15.1994V16.3307C104.964 16.7101 104.964 17.0896 104.964 17.469H106.264C106.397 17.4607 106.527 17.5034 106.629 17.5884C106.675 17.6411 106.71 17.7024 106.732 17.7688C106.754 17.8352 106.762 17.9053 106.756 17.9749V19.2046C106.769 19.354 106.724 19.5027 106.629 19.6191C106.58 19.6638 106.522 19.698 106.46 19.7198C106.397 19.7415 106.33 19.7503 106.264 19.7456H104.964V21.432C104.964 21.6358 104.964 21.8325 104.964 22.0152V24.3832C104.961 24.3947 104.961 24.4068 104.964 24.4183V25.6058C104.935 25.9113 105.02 26.2169 105.203 26.4631C105.303 26.5597 105.422 26.6336 105.553 26.6797C105.684 26.7257 105.824 26.7429 105.962 26.7301C106.018 26.727 106.074 26.7376 106.126 26.7608C106.177 26.784 106.222 26.8193 106.257 26.8636C106.328 26.9562 106.365 27.0702 106.362 27.1868V28.4586C106.367 28.5249 106.358 28.5913 106.336 28.6541C106.314 28.7168 106.28 28.7746 106.236 28.824C106.137 28.9057 106.012 28.9482 105.885 28.9435Z" fill="#009F69"/>
<path d="M86.969 13C84.9102 13 84.9031 16.2041 86.969 16.2041C89.0348 16.2041 89.077 13 86.969 13Z" fill="#009F69"/>
<path d="M119.017 20.4272V28.9084C120.475 28.9084 121.873 28.3323 122.908 27.3057C123.942 26.279 124.529 24.8851 124.54 23.4276V20.4272H119.017Z" fill="#00D679"/>
<path d="M130 14.9675C128.552 14.9675 127.163 15.5427 126.139 16.5666C125.115 17.5905 124.54 18.9792 124.54 20.4272H130V14.9675Z" fill="#009F69"/>
<path d="M124.54 14.1033V20.4272H111.892C111.892 18.75 112.559 17.1415 113.745 15.9555C114.931 14.7695 116.539 14.1033 118.216 14.1033H124.54Z" fill="#007D64"/>
<path d="M85.3233 33.3349H81.9167V41.2047H83.738V39.0349H85.3233C87.4256 39.0349 88.741 37.9443 88.741 36.1905C88.741 34.4254 87.4256 33.3349 85.3233 33.3349ZM85.2221 37.5508H83.738V34.8189H85.2221C86.3351 34.8189 86.8972 35.3248 86.8972 36.1905C86.8972 37.0449 86.3351 37.5508 85.2221 37.5508Z" fill="#007D64"/>
<path d="M97.0117 41.2047L95.2466 38.6751C96.2697 38.2366 96.8655 37.371 96.8655 36.1905C96.8655 34.4254 95.5502 33.3349 93.4478 33.3349H90.0413V41.2047H91.8626V39.0124H93.4478H93.5377L95.0555 41.2047H97.0117ZM95.0218 36.1905C95.0218 37.0449 94.4596 37.5621 93.3466 37.5621H91.8626V34.8189H93.3466C94.4596 34.8189 95.0218 35.3248 95.0218 36.1905Z" fill="#007D64"/>
<path d="M102.12 41.3396C104.593 41.3396 106.426 39.6195 106.426 37.2698C106.426 34.9201 104.593 33.2 102.12 33.2C99.6352 33.2 97.8139 34.9313 97.8139 37.2698C97.8139 39.6082 99.6352 41.3396 102.12 41.3396ZM102.12 39.7881C100.714 39.7881 99.6577 38.765 99.6577 37.2698C99.6577 35.7745 100.714 34.7514 102.12 34.7514C103.525 34.7514 104.582 35.7745 104.582 37.2698C104.582 38.765 103.525 39.7881 102.12 39.7881Z" fill="#007D64"/>
</g>
<defs>
<clipPath id="clip0_55_186">
<rect width="114" height="30.2356" fill="white" transform="translate(16 13)"/>
</clipPath>
</defs>
</svg>
